<svg xmlns="http://www.w3.org/2000/svg" viewBox="0 0 1200 900" role="img" aria-labelledby="title desc">
  <title id="title">On-site repair work scene</title>
  <desc id="desc">Illustrative scene of a technician checking utility equipment at a residence.</desc>
  <defs>
    <linearGradient id="bg" x1="0" y1="0" x2="1" y2="1">
      <stop offset="0%" stop-color="#e0f2fe"/>
      <stop offset="100%" stop-color="#ccfbf1"/>
    </linearGradient>
    <linearGradient id="floor" x1="0" y1="0" x2="1" y2="0">
      <stop offset="0%" stop-color="#cbd5e1"/>
      <stop offset="100%" stop-color="#94a3b8"/>
    </linearGradient>
  </defs>

  <rect width="1200" height="900" fill="url(#bg)"/>
  <rect y="670" width="1200" height="230" fill="url(#floor)"/>

  <rect x="130" y="170" width="540" height="500" rx="24" fill="#f8fafc" stroke="#94a3b8" stroke-width="6"/>
  <rect x="220" y="240" width="280" height="220" rx="16" fill="#dbeafe" stroke="#60a5fa" stroke-width="6"/>
  <rect x="245" y="275" width="230" height="70" rx="10" fill="#ffffff"/>
  <circle cx="315" cy="390" r="24" fill="#0284c7"/>
  <circle cx="405" cy="390" r="24" fill="#0d9488"/>
  <rect x="520" y="270" width="90" height="320" rx="16" fill="#e2e8f0" stroke="#94a3b8" stroke-width="6"/>

  <path d="M540 590 C620 660, 730 650, 800 600" fill="none" stroke="#0284c7" stroke-width="14" stroke-linecap="round"/>
  <circle cx="790" cy="600" r="16" fill="#f97316"/>

  <circle cx="820" cy="350" r="70" fill="#f8fafc" stroke="#334155" stroke-width="8"/>
  <path d="M760 350 Q820 300 880 350" fill="#f97316"/>
  <rect x="770" y="420" width="100" height="180" rx="18" fill="#0c4a6e"/>
  <rect x="735" y="450" width="45" height="120" rx="16" fill="#0c4a6e"/>
  <rect x="860" y="450" width="45" height="120" rx="16" fill="#0c4a6e"/>
  <rect x="795" y="600" width="30" height="90" rx="12" fill="#334155"/>
  <rect x="842" y="600" width="30" height="90" rx="12" fill="#334155"/>

  <circle cx="920" cy="470" r="54" fill="#ffffff" stroke="#64748b" stroke-width="8"/>
  <path d="M890 470 l24 24 M914 446 l24 24" stroke="#0f172a" stroke-width="10" stroke-linecap="round"/>
</svg>
