<svg xmlns="http://www.w3.org/2000/svg" viewBox="0 0 960 540" role="img" aria-labelledby="title desc">
  <title id="title">Leak and pipe repair image</title>
  <desc id="desc">Illustrative image showing pipe joint, leak droplet, and repair tools.</desc>
  <defs>
    <linearGradient id="bg" x1="0" y1="0" x2="1" y2="1">
      <stop offset="0%" stop-color="#ecfeff"/>
      <stop offset="100%" stop-color="#cffafe"/>
    </linearGradient>
  </defs>

  <rect width="960" height="540" fill="url(#bg)"/>

  <rect x="170" y="220" width="620" height="120" rx="24" fill="#e2e8f0" stroke="#64748b" stroke-width="8"/>
  <rect x="420" y="120" width="120" height="280" rx="24" fill="#cbd5e1" stroke="#64748b" stroke-width="8"/>
  <circle cx="480" cy="280" r="32" fill="#94a3b8"/>

  <path d="M480 360 C450 410 450 438 480 468 C510 438 510 410 480 360 Z" fill="#0284c7"/>
  <path d="M480 378 C466 402 466 416 480 430 C494 416 494 402 480 378 Z" fill="#7dd3fc"/>

  <circle cx="760" cy="140" r="52" fill="#0d9488"/>
  <path d="M734 154 l52 -52 M734 102 l52 52" stroke="#ffffff" stroke-width="10" stroke-linecap="round"/>

  <rect x="230" y="420" width="200" height="24" rx="10" fill="#334155"/>
  <rect x="530" y="420" width="200" height="24" rx="10" fill="#334155"/>
</svg>
